# xmcd CD database file
#
# Track frame offsets:
#	150
#	22920
#	44197
#	64555
#	89482
#	113610
#	139417
#	164490
#	190807
#	226062
#	253737
#
# Disc length: 3779 seconds
#
# Revision: 1
# Processed by: cddbd v1.5.2PL0 Copyright (c) Steve Scherf et al.
# Submitted via: CDex 1.70beta2
#
DISCID=940ec10b
DTITLE=Toshio Osumi - New Deal
DYEAR=2007
DGENRE=Jazz
TTITLE0=Milestones (Miles Davis)
TTITLE1=Nature Boy (Eden Ahbez)
TTITLE2=Manteca (Dizzy Gillespie)
TTITLE3=We've Only Just Begun (R.Nichols - P.Williams)
TTITLE4=Well, You Needn't (Thelonious Monk)
TTITLE5=Temptation (N.H.Brown)
TTITLE6=Here, There and Everywhere (J.Lennon - P.McCartney)
TTITLE7=Blues in the Closeet (Oscar Pettiford)
TTITLE8=The Midnight Sun will Never Set (Quincy Jones)
TTITLE9=Just One of Those Things (Cole Porter)
TTITLE10=Bridge Over Troubled Water (Paul Simon)
EXTD=YEAR: 2007
EXTT0=
EXTT1=
EXTT2=
EXTT3=
EXTT4=
EXTT5=
EXTT6=
EXTT7=
EXTT8=
EXTT9=
EXTT10=
PLAYORDER=
